<?xml version="1.0" encoding="UTF-8" standalone="no"?><!DOCTYPE svg PUBLIC "-//W3C//DTD SVG 1.1//EN" "http://www.w3.org/Graphics/SVG/1.1/DTD/svg11.dtd"><svg width="100%" height="100%" viewBox="0 0 260 260" version="1.1" xmlns="http://www.w3.org/2000/svg" xmlns:xlink="http://www.w3.org/1999/xlink" xml:space="preserve" xmlns:serif="http://www.serif.com/" style="fill-rule:evenodd;clip-rule:evenodd;stroke-linejoin:round;stroke-miterlimit:2;"><circle cx="129.6" cy="129.6" r="129.6" style="fill:#f16664;"/><g><path d="M129.56,194.375c-14.099,21.903 -42.299,21.903 -56.399,10.952c-14.101,-10.952 -14.101,-32.854 0,-54.757c9.87,-16.427 35.25,-32.854 56.399,-43.805c21.15,10.951 46.53,27.378 56.4,43.805c14.1,21.903 14.1,43.805 0,54.757c-14.1,10.951 -42.3,10.951 -56.4,-10.952Z" style="fill:#fff;"/><path d="M68.14,124.902c3.55,10.806 -2.924,16.238 -9.555,14.91c-6.631,-1.328 -13.419,-9.418 -16.97,-20.224c-2.824,-7.968 -2.088,-18.924 -0.627,-27.043c8.25,-0.03 19.168,1.148 26.524,5.313c10.025,5.373 16.813,13.463 16.97,20.224c0.157,6.761 -6.318,12.193 -16.342,6.82Z" style="fill:#fff;"/><path d="M191.06,124.902c-10.024,5.373 -16.499,-0.059 -16.342,-6.82c0.157,-6.761 6.944,-14.851 16.97,-20.224c7.356,-4.165 18.274,-5.343 26.524,-5.313c1.461,8.119 2.197,19.075 -0.627,27.043c-3.551,10.806 -10.339,18.895 -16.97,20.224c-6.631,1.328 -13.105,-4.104 -9.555,-14.91Z" style="fill:#fff;"/><path d="M153.64,94.105c-7.462,10.692 -15.586,8.362 -17.949,1.269c-2.362,-7.093 1.038,-18.949 8.5,-29.641c5.393,-8.076 15.254,-14.872 23.047,-19.053c4.394,7.675 9.156,18.664 9.449,28.372c0.663,13.021 -2.737,24.877 -8.499,29.64c-5.762,4.764 -13.886,2.434 -14.548,-10.587Z" style="fill:#fff;"/><path d="M106.514,94.105c-0.662,13.021 -8.786,15.351 -14.548,10.587c-5.762,-4.763 -9.162,-16.619 -8.5,-29.64c0.294,-9.708 5.056,-20.697 9.449,-28.372c7.793,4.181 17.655,10.977 23.048,19.053c7.462,10.692 10.862,22.548 8.499,29.641c-2.362,7.093 -10.486,9.423 -17.948,-1.269Z" style="fill:#fff;"/></g></svg>