<?xml version="1.0" encoding="UTF-8" standalone="no"?><!DOCTYPE svg PUBLIC "-//W3C//DTD SVG 1.1//EN" "http://www.w3.org/Graphics/SVG/1.1/DTD/svg11.dtd"><svg width="100%" height="100%" viewBox="0 0 512 512" version="1.1" xmlns="http://www.w3.org/2000/svg" xmlns:xlink="http://www.w3.org/1999/xlink" xml:space="preserve" xmlns:serif="http://www.serif.com/" style="fill-rule:evenodd;clip-rule:evenodd;stroke-linejoin:round;stroke-miterlimit:2;"><path d="M256.001,448.453c-39.929,62.026 -119.788,62.026 -159.717,31.013c-39.931,-31.013 -39.931,-93.038 0,-155.064c27.951,-46.519 99.823,-93.038 159.717,-124.051c59.893,31.013 131.766,77.532 159.716,124.051c39.929,62.026 39.929,124.051 0,155.064c-39.929,31.013 -119.787,31.013 -159.716,-31.013Z"/><path d="M82.064,251.714c10.055,30.6 -8.279,45.984 -27.057,42.223c-18.779,-3.762 -38.001,-26.67 -48.055,-57.27c-8,-22.566 -5.916,-53.593 -1.776,-76.585c23.362,-0.084 54.279,3.251 75.113,15.047c28.389,15.216 47.611,38.124 48.055,57.271c0.444,19.146 -17.89,34.53 -46.28,19.314Z"/><path d="M430.161,251.714c-28.389,15.216 -46.723,-0.168 -46.28,-19.314c0.444,-19.147 19.666,-42.055 48.056,-57.271c20.833,-11.796 51.751,-15.131 75.112,-15.047c4.14,22.992 6.224,54.019 -1.775,76.585c-10.055,30.6 -29.277,53.508 -48.056,57.27c-18.778,3.761 -37.112,-11.623 -27.057,-42.223Z"/><path d="M324.19,164.501c-21.131,30.277 -44.138,23.68 -50.827,3.594c-6.69,-20.087 2.938,-53.662 24.069,-83.939c15.273,-22.873 43.199,-42.117 65.268,-53.957c12.441,21.736 25.926,52.855 26.758,80.345c1.876,36.874 -7.752,70.45 -24.069,83.939c-16.317,13.489 -39.324,6.892 -41.199,-29.982Z"/><path d="M190.737,164.501c-1.876,36.874 -24.882,43.471 -41.2,29.982c-16.317,-13.489 -25.945,-47.065 -24.069,-83.939c0.832,-27.49 14.317,-58.609 26.758,-80.345c22.069,11.84 49.995,31.084 65.268,53.957c21.131,30.277 30.759,63.852 24.07,83.939c-6.69,20.086 -29.696,26.683 -50.827,-3.594Z"/></svg>