<?xml version="1.0" standalone="no"?>
<!DOCTYPE svg PUBLIC "-//W3C//DTD SVG 20010904//EN"
 "http://www.w3.org/TR/2001/REC-SVG-20010904/DTD/svg10.dtd">
<svg version="1.0" xmlns="http://www.w3.org/2000/svg"
 width="700.000000pt" height="700.000000pt" viewBox="0 0 700.000000 700.000000"
 preserveAspectRatio="xMidYMid meet">
<metadata>
Created by potrace 1.11, written by Peter Selinger 2001-2013
</metadata>
<g transform="translate(0.000000,700.000000) scale(0.100000,-0.100000)"
fill="#000000" stroke="none">
<path d="M3205 6989 c-928 -85 -1750 -501 -2347 -1188 -473 -544 -752 -1185
-840 -1926 -17 -142 -16 -585 0 -730 96 -815 435 -1526 997 -2090 581 -584
1292 -923 2130 -1017 266 -30 704 -10 985 43 1106 212 2031 925 2514 1941 361
759 432 1655 195 2465 -165 565 -464 1067 -884 1489 -556 557 -1267 903 -2055
1000 -149 19 -555 26 -695 13z m-611 -1298 c255 -155 437 -318 554 -498 66
-101 157 -296 187 -398 51 -175 43 -338 -20 -434 -50 -74 -139 -107 -221 -81
-58 18 -140 77 -184 132 -44 55 -42 57 -55 -43 -7 -58 -54 -156 -91 -191 -155
-145 -371 -2 -463 307 -37 123 -52 241 -52 411 0 231 32 374 141 626 41 95
107 218 117 218 3 0 42 -22 87 -49z m1974 -73 c164 -333 216 -588 181 -895
-32 -288 -142 -513 -284 -579 -151 -71 -282 27 -318 240 l-12 75 -56 -62
c-128 -143 -279 -165 -374 -55 -100 118 -92 351 23 613 133 305 332 523 659
721 58 35 109 64 113 64 4 0 35 -55 68 -122z m-3108 -1139 c266 -45 453 -140
636 -323 114 -115 166 -211 172 -317 7 -116 -33 -194 -122 -235 -67 -31 -139
-31 -231 0 -38 14 -71 23 -73 22 -1 -2 3 -27 9 -56 25 -116 -5 -229 -77 -288
-213 -176 -554 116 -676 578 -35 134 -35 387 -1 614 l6 38 121 -7 c67 -3 173
-15 236 -26z m4421 -9 c35 -168 34 -462 -1 -608 -68 -284 -243 -532 -427 -608
-104 -42 -190 -27 -263 46 -27 27 -50 61 -58 86 -14 49 -15 143 -2 199 5 22 8
40 7 41 -1 1 -33 -8 -72 -22 -205 -69 -360 25 -358 219 0 59 6 79 43 153 94
191 353 394 588 463 145 42 344 70 477 67 l59 -1 7 -35z m-2248 -421 c526
-286 1001 -635 1223 -900 91 -108 128 -162 200 -284 246 -421 300 -841 148
-1150 -138 -282 -465 -447 -854 -432 -217 8 -412 71 -574 184 -75 53 -206 182
-249 245 -18 26 -35 48 -38 48 -4 0 -18 -18 -33 -40 -71 -107 -223 -241 -356
-313 -438 -238 -1047 -128 -1283 231 -90 136 -128 277 -128 468 0 290 122 622
340 928 220 308 698 678 1306 1010 77 42 146 76 153 76 8 0 73 -32 145 -71z"/>
</g>
</svg>
